<?xml version="1.0" encoding="UTF-8" standalone="no"?>
<!-- Created with Inkscape (http://www.inkscape.org/) -->

<svg
   xmlns:dc="http://purl.org/dc/elements/1.1/"
   xmlns:cc="http://creativecommons.org/ns#"
   xmlns:rdf="http://www.w3.org/1999/02/22-rdf-syntax-ns#"
   xmlns:svg="http://www.w3.org/2000/svg"
   xmlns="http://www.w3.org/2000/svg"
   xmlns:sodipodi="http://sodipodi.sourceforge.net/DTD/sodipodi-0.dtd"
   xmlns:inkscape="http://www.inkscape.org/namespaces/inkscape"
   width="210mm"
   height="297mm"
   viewBox="0 0 210 297"
   version="1.1"
   id="svg11031"
   inkscape:version="0.92.2 5c3e80d, 2017-08-06"
   sodipodi:docname="A_1_1.svg">
  <defs
     id="defs11025" />
  <sodipodi:namedview
     id="base"
     pagecolor="#ffffff"
     bordercolor="#666666"
     borderopacity="1.0"
     inkscape:pageopacity="0.0"
     inkscape:pageshadow="2"
     inkscape:zoom="1.5497345"
     inkscape:cx="669.6201"
     inkscape:cy="680.62785"
     inkscape:document-units="mm"
     inkscape:current-layer="layer1"
     showgrid="false"
     inkscape:showpageshadow="false"
     showborder="false"
     inkscape:window-width="1440"
     inkscape:window-height="800"
     inkscape:window-x="0"
     inkscape:window-y="1"
     inkscape:window-maximized="1" />
  <metadata
     id="metadata11028">
    <rdf:RDF>
      <cc:Work
         rdf:about="">
        <dc:format>image/svg+xml</dc:format>
        <dc:type
           rdf:resource="http://purl.org/dc/dcmitype/StillImage" />
        <dc:title></dc:title>
      </cc:Work>
    </rdf:RDF>
  </metadata>
  <g
     inkscape:label="Layer 1"
     inkscape:groupmode="layer"
     id="layer1">
    <path
       style="fill:#800000;fill-opacity:1;stroke:#000600;stroke-width:1.91178787;stroke-linejoin:bevel;stroke-miterlimit:27.39999962;stroke-dasharray:none;stroke-dashoffset:0;stroke-opacity:0"
       d=""
       id="path11909"
       inkscape:connector-curvature="0"
       transform="scale(0.26458333)" />
    <circle
       style="display:inline;opacity:1;fill:#808080;fill-opacity:1;fill-rule:nonzero;stroke:#000000;stroke-width:1.59700644;stroke-linecap:round;stroke-linejoin:round;stroke-miterlimit:4;stroke-dasharray:none;stroke-dashoffset:0;stroke-opacity:1;paint-order:markers fill stroke"
       id="path867"
       cx="147.61316"
       cy="116.91721"
       inkscape:export-filename="/Users/anilkarki/Desktop/BoardGame Graphic/A_1_1.png"
       inkscape:export-xdpi="96"
       inkscape:export-ydpi="96"
       r="25.65983" />
    <g
       id="g891"
       transform="matrix(0.4158297,0,0,0.41568307,155.27626,61.84073)"
       style="stroke-width:2.40525484"
       inkscape:export-filename="/Users/anilkarki/Desktop/BoardGame Graphic/A_1_1.png"
       inkscape:export-xdpi="96"
       inkscape:export-ydpi="96">
      <path
         inkscape:export-ydpi="200.8"
         inkscape:export-xdpi="200.8"
         sodipodi:nodetypes="ccccccccccccccccccsc"
         inkscape:connector-curvature="0"
         id="path12009"
         d="m -36.105471,163.07389 c -3.533328,-9.98181 9.045055,-21.09813 -21.831214,-24.77003 3.706357,-5.4449 6.645789,-6.28824 9.236284,-5.03797 v -1.2595 c -0.03702,-0.11568 -8.097579,-25.77723 12.175101,-28.12868 28.54851,10.91561 31.4873273,11.75527 31.4873273,11.75527 v 15.11392 c 5.56665964,-0.71139 7.696328,1.15497 8.8164522,3.77848 -16.5443385,3.0646 -6.9453629,20.30699 -11.7552695,28.12868 -1.6793243,1.81927 -3.358649,3.63854 -5.037973,5.45781 h -3.358648 v -4.61815 7.13713 l -5.457804,0.41983 v -7.97679 5.45781 l -5.877635,0.41983 -0.419831,-5.87764 c 0,0 0.191343,0.37369 0,0 -0.09428,-0.18413 -3.947235,9.86809 -7.97679,0 z"
         style="fill:none;stroke:#000000;stroke-width:0.63639027px;stroke-linecap:butt;stroke-linejoin:miter;stroke-opacity:1" />
      <path
         inkscape:export-ydpi="200.8"
         inkscape:export-xdpi="200.8"
         sodipodi:nodetypes="cccccccccccc"
         inkscape:connector-curvature="0"
         id="path12011"
         d="m -57.936685,138.30386 c -2.849797,-32.52628 3.570392,-36.10669 4.19831,-36.5253 8.816915,-6.812134 18.679485,-17.109787 24.350202,-13.434596 21.929172,0.340529 22.3052486,7.865423 32.3269903,12.175096 8.7309807,2.38657 18.7506637,-1.670372 28.5485117,-4.618136 -7.375371,4.466256 -12.037782,11.193306 -25.6096942,10.495776 2.4837513,1.5693 9.6118982,4.46557 27.7088482,10.49578 -7.653909,-1.30797 -12.50666,-1.21536 -28.5485105,-6.7173 10.5251435,12.99289 25.9134005,14.63851 39.4641185,20.57172 -12.995813,-2.35062 -22.91621,-0.0881 -39.8839496,-8.39662 l 7.1371276,8.81645 c -8.6813374,3.6553 -10.2328904,4.30859 -7.9767897,3.35865"
         style="fill:none;stroke:#000000;stroke-width:0.63639027px;stroke-linecap:butt;stroke-linejoin:miter;stroke-opacity:1" />
      <path
         inkscape:export-ydpi="200.8"
         inkscape:export-xdpi="200.8"
         sodipodi:nodetypes="ccccc"
         inkscape:connector-curvature="0"
         id="path12013"
         d="m -39.88395,123.18994 c 8.396621,4.19831 7.55696,4.19831 7.55696,4.19831 l -0.419833,7.13713 c -2.800031,0.70551 -5.823567,2.52854 -7.556957,-2.09916 -2.247527,-4.67041 -0.515037,-6.68747 0.41983,-9.23628 z"
         style="fill:none;stroke:#000000;stroke-width:0.63639027px;stroke-linecap:butt;stroke-linejoin:miter;stroke-opacity:1" />
      <path
         inkscape:export-ydpi="200.8"
         inkscape:export-xdpi="200.8"
         style="fill:none;stroke:#000000;stroke-width:0.73145622px;stroke-linecap:butt;stroke-linejoin:miter;stroke-opacity:1"
         d="m -13.571391,124.08911 c -9.85111,1.41537 -8.896794,1.751 -8.896794,1.751 l -0.04633,8.27963 c 3.130625,1.92109 6.433306,5.20163 8.742821,0.63482 2.896992,-4.40985 1.075878,-7.39488 0.200307,-10.66545 z"
         id="path12015"
         inkscape:connector-curvature="0"
         sodipodi:nodetypes="ccccc" />
      <path
         inkscape:export-ydpi="200.8"
         inkscape:export-xdpi="200.8"
         transform="scale(0.26458333)"
         inkscape:connector-curvature="0"
         id="path12017"
         d="m -218.095,514.32172 c -0.49222,-2.06174 -1.37603,-15.53035 -1.96403,-29.93022 -1.61094,-39.45096 2.32749,-73.11531 10.40654,-88.95156 4.60879,-9.03398 54.21605,-49.2803 71.35698,-57.89184 9.7576,-4.90219 13.66168,-5.14349 39.669073,-2.4518 39.092541,4.04595 52.686975,8.70659 78.403897,26.8795 22.6351276,15.99515 28.2991576,18.81543 42.082162,20.95394 14.393575,2.23324 35.653058,-0.71969 63.369699,-8.802 10.794194,-3.14764 19.900709,-5.44807 20.236699,-5.11207 0.336,0.336 -4.98411,4.63936 -11.822475,9.56302 -21.659268,15.59479 -38.492999,21.66435 -60.171959,21.69554 -7.199937,0.0103 -13.090795,0.6335 -13.090795,1.38477 0,2.17243 22.219014,11.73402 53.156562,22.87506 15.708954,5.65701 29.632797,10.67215 30.941877,11.14474 1.60769,0.5804 1.27816,0.89992 -1.0154,0.98454 -8.540863,0.31509 -50.450987,-10.11174 -75.806271,-18.85986 -5.161327,-1.78078 -9.760766,-2.86124 -10.220975,-2.40102 -1.285548,1.28553 15.205125,17.59729 26.745652,26.4555 14.927125,11.45767 42.310942,24.29231 78.858644,36.96061 17.59386,6.09844 31.82473,11.25219 31.62414,11.45276 -0.81405,0.81406 -55.143867,-4.5632 -68.433563,-6.77317 -17.568831,-2.92155 -37.051441,-8.67391 -54.432065,-16.07139 -7.246922,-3.08441 -13.603844,-5.18039 -14.126508,-4.65773 -0.522648,0.52265 4.850449,8.03791 11.94025,16.70056 l 12.890529,15.75027 -13.519665,5.65945 -13.51965,5.65944 -4.812747,-5.48142 c -5.0957469,-5.80373 -12.5558339,-8.70853 -22.402762,-8.72317 l -5.950361,-0.009 V 464.0146 435.70403 l -6.490892,-1.94472 c -3.569995,-1.0696 -30.738584,-11.1067 -60.374657,-22.30467 l -53.883769,-20.35995 -8.48365,1.97209 c -18.51933,4.30496 -33.84615,17.43047 -39.93703,34.2011 -3.93084,10.82315 -4.79512,42.46022 -1.59183,58.26908 3.30352,16.30356 3.36462,15.87652 -2.15533,15.06636 -5.79574,-0.85063 -17.14347,5.40745 -22.71554,12.52724 l -3.86585,4.93964 z"
         style="fill:#000000;fill-opacity:1;stroke:#000000;stroke-width:0;stroke-linejoin:bevel;stroke-miterlimit:27.39999962;stroke-dasharray:none;stroke-dashoffset:0;stroke-opacity:0" />
      <path
         inkscape:export-ydpi="200.8"
         inkscape:export-xdpi="200.8"
         transform="scale(0.26458333)"
         inkscape:connector-curvature="0"
         id="path12019"
         d="m -146.17679,506.90284 c -2.455,-2.455 -5.71166,-8.42284 -7.23703,-13.26186 -2.64574,-8.39323 -2.64368,-9.21059 0.0445,-17.75715 l 2.81793,-8.95894 12.87166,6.81826 12.87166,6.81826 0.48144,10.1966 c 0.70867,15.00938 -0.0603,16.75236 -8.30632,18.82874 -9.17285,2.30975 -8.39634,2.46363 -13.54388,-2.68391 z"
         style="fill:#000000;fill-opacity:1;stroke:#000000;stroke-width:0;stroke-linejoin:bevel;stroke-miterlimit:27.39999962;stroke-dasharray:none;stroke-dashoffset:0;stroke-opacity:0" />
      <path
         inkscape:export-ydpi="200.8"
         inkscape:export-xdpi="200.8"
         transform="scale(0.26458333)"
         inkscape:connector-curvature="0"
         id="path12021"
         d="m -76.015064,511.04743 -8.330506,-5.16291 v -14.60649 c 0,-16.82827 -1.457071,-15.41309 19.289525,-18.73498 l 12.677335,-2.02986 1.743911,4.16232 c 0.959153,2.28927 1.799598,9.27485 1.867655,15.5235 0.11101,10.19208 -0.372533,12.06983 -4.699011,18.24777 -6.329068,9.03752 -11.247535,9.60479 -22.548909,2.60065 z"
         style="fill:#000000;fill-opacity:1;stroke:#000000;stroke-width:0;stroke-linejoin:bevel;stroke-miterlimit:27.39999962;stroke-dasharray:none;stroke-dashoffset:0;stroke-opacity:0" />
      <path
         inkscape:export-ydpi="200.8"
         inkscape:export-xdpi="200.8"
         sodipodi:nodetypes="ssccccccccscsscscsssssccccccccscccssscccssccsccccsscscsccss"
         transform="scale(0.26458333)"
         inkscape:connector-curvature="0"
         id="path12023"
         d="m -81.172044,630.3737 c 0,-16.17442 -2.767291,-19.62996 -3.494501,-4.3636 l -0.472406,9.91727 -8.904485,0.46933 -24.188704,-6.8204 14.2889,1.26673 c -0.54743,-3.31265 -1.00318,-7.98662 -1.01279,-10.3866 -0.0235,-5.87977 -2.21054,-5.49404 -6.08535,1.07327 -1.76431,2.99029 -5.00015,6.61125 -7.19076,8.0466 -5.51099,3.61094 -9.44337,1.19038 -14.90853,-9.17685 -4.26182,-8.08451 -4.35172,-8.8109 -3.93487,-31.79435 0.24017,-13.24181 -0.31723,-26.28319 -1.27544,-29.84175 -4.57619,-16.99465 -27.13402,-29.09847 -65.04736,-34.90234 -6.95671,-1.06495 -12.64856,-2.4232 -12.64856,-3.01833 0,-0.59513 3.97563,-4.84204 8.83474,-9.43759 8.68181,-8.21088 8.97335,-8.34221 16.84102,-7.58623 l 8.00627,0.7693 -0.90218,-5.73473 c -0.4962,-3.1541 -1.98038,-11.44708 -3.29817,-18.42884 -4.16829,-22.08386 -2.1972,-44.55873 5.17529,-59.01002 4.06241,-7.96298 15.94015,-18.89415 24.49803,-22.54573 15.15151,-6.46502 13.65586,-6.78399 72.813711,15.52852 29.961772,11.30065 56.439563,21.03908 58.839542,21.64096 l 4.363599,1.09432 v 29.1831 29.1831 l 9.917269,0.006 c 10.70416044,0.006 18.5472921,3.40328 21.772547,9.42974 1.45576,2.7201 1.275868,3.261 -1.0888054,3.27394 -5.7397821,0.0314 -19.039776,7.67695 -24.5470496,14.11094 -8.560015,10.00052 -10.81425,20.31863 -10.81425,49.49913 0,32.46087 -1.520929,38.16838 -13.662855,51.27168 -8.122958,8.76614 -10.123453,10.10949 -15.295571,10.27112 l -5.950361,0.18597 v -7.93382 c 0,-4.3636 -0.714044,-7.93381 -1.586763,-7.93381 -0.93339,0 -1.586763,5.55367 -1.586763,13.48748 v 13.48749 h -8.727197 -8.727197 z m 23.733755,-112.62395 c 4.215664,-2.25615 10.906298,-14.45782 12.132469,-22.1259 0.699588,-4.37495 0.118373,-10.10007 -1.71207,-16.86198 -3.23368,-11.94618 -2.724504,-11.79012 -25.080606,-7.68699 l -13.934517,2.55748 0.447031,17.58155 0.447031,17.58156 8.727196,5.24585 c 9.011766,5.41689 13.970279,6.38605 18.973466,3.70843 z m -71.337591,-6.57047 5.92092,-1.77395 1.08579,-14.38315 c 0.96907,-12.8371 0.77959,-14.56525 -1.76275,-16.07714 -1.5667,-0.93168 -8.39854,-4.77772 -15.18189,-8.54674 l -12.33335,-6.85277 -3.1099,6.85277 c -4.02107,8.86053 -3.98846,18.05936 0.10279,28.99421 4.90175,13.10111 11.1568,16.0177 25.27839,11.78677 z"
         style="fill:#f4d7d7;fill-opacity:1;stroke:#000000;stroke-width:0;stroke-linejoin:bevel;stroke-miterlimit:27.39999962;stroke-dasharray:none;stroke-dashoffset:0;stroke-opacity:0" />
      <path
         inkscape:export-ydpi="200.8"
         inkscape:export-xdpi="200.8"
         sodipodi:nodetypes="ccccccccc"
         inkscape:connector-curvature="0"
         id="path12025"
         d="m -57.936685,138.30386 c 19.709896,32.11863 2.821209,23.26582 1.259493,22.67088 5.977533,9.89552 10.61476,9.0686 15.533749,10.49577 l 0.839663,8.39662 36.9451317,-1.25949 c 0.3375178,-4.78277 1.4873003,-7.94101 2.93881726,-10.49578 9.94426384,3.10355 17.93590704,0.34923 26.86918704,0.41983 C 14.994205,167.83853 4.0888921,166.901 2.5189863,161.8144 0.00189944,155.65498 0.70070331,146.27966 3.7784793,134.52538"
         style="fill:none;stroke:#000000;stroke-width:0.63639027px;stroke-linecap:butt;stroke-linejoin:miter;stroke-opacity:1" />
      <path
         inkscape:export-ydpi="200.8"
         inkscape:export-xdpi="200.8"
         transform="scale(0.26458333)"
         inkscape:connector-curvature="0"
         id="path12027"
         d="m -151.57373,673.61299 c -0.45995,-2.39998 -1.29232,-9.43204 -1.8497,-15.62681 l -1.01343,-11.26321 -12.49131,-2.68425 c -14.76531,-3.17291 -26.47265,-10.38716 -36.29105,-22.36313 -3.56435,-4.3476 -6.48063,-8.38347 -6.48063,-8.96859 0,-0.58513 3.39171,-0.0365 7.53712,1.21914 13.31985,4.0346 19.43785,0.17028 19.43785,-12.27757 0,-13.00157 -9.20781,-35.36024 -27.83378,-67.5868 l -5.68338,-9.83334 6.04793,0.88292 c 37.68307,5.50124 60.0602,15.34157 67.48426,29.67615 3.07999,5.94693 3.36654,8.75764 3.05717,29.98635 -0.38166,26.18904 0.79734,32.63984 7.70948,42.18177 4.89444,6.75658 9.59098,8.3228 15.56999,5.19234 3.98153,-2.08462 9.81296,0.69811 9.81296,4.6827 0,3.24022 0.47729,3.33777 11.107339,2.27024 l 11.107341,-1.11547 v 5.14235 5.14236 l 8.330506,-1.00061 c 4.581778,-0.55034 9.937104,-1.00682 11.900723,-1.01441 2.906001,-0.0112 3.570217,-0.89941 3.570217,-4.77408 0,-4.47486 0.370763,-4.76029 6.183647,-4.76029 5.650765,0 7.018792,-0.94201 15.875104,-10.93145 13.979446,-15.76808 14.982042,-18.84492 14.793154,-45.39864 -0.31099,-43.71993 4.045421,-56.16675 22.9851829,-65.67159 8.9392993,-4.48615 13.7311971,-4.49734 12.3129161,-0.0288 -7.5643532,23.83318 -10.74440084,66.578 -6.4044294,86.08539 3.0689426,13.7943 7.3690224,20.04367 17.2657274,25.0926 7.157412,3.65144 31.912026,9.21247 41.152906,9.24484 3.272698,0.0114 5.950361,0.66445 5.950361,1.45108 0,0.78663 -8.323143,1.95028 -18.495865,2.5859 -18.127768,1.13266 -40.186409,-0.68743 -49.0158564,-4.04438 -3.4652207,-1.31747 -4.1883562,-0.85137 -6.880871,4.43501 -4.1085103,8.06648 -8.1190856,22.05205 -8.1190856,28.31265 0,4.89577 -0.355784,5.21113 -6.743743,5.97752 -6.891248,0.82675 -105.775154,4.20152 -122.054674,4.16555 -8.54894,-0.0189 -9.03953,-0.23757 -9.83408,-4.38348 z"
         style="fill:#000000;fill-opacity:1;stroke:#000000;stroke-width:0;stroke-linejoin:bevel;stroke-miterlimit:27.39999962;stroke-dasharray:none;stroke-dashoffset:0;stroke-opacity:0" />
      <path
         inkscape:export-ydpi="200.8"
         inkscape:export-xdpi="200.8"
         sodipodi:nodetypes="ccccc"
         inkscape:connector-curvature="0"
         id="path12029"
         d="m -29.808006,148.37981 c 4.203375,-3.46821 8.951351,-3.66882 14.274257,-0.41984 l -0.419831,0.83967 c -1.667124,2.81107 -4.076458,4.87994 -7.97679,5.4578 -3.638536,-2.51898 -5.597748,-4.47819 -5.877636,-5.87763 z"
         style="fill:none;stroke:#000000;stroke-width:0.63639027px;stroke-linecap:butt;stroke-linejoin:miter;stroke-opacity:1" />
      <path
         inkscape:export-ydpi="200.8"
         inkscape:export-xdpi="200.8"
         transform="scale(0.26458333)"
         inkscape:connector-curvature="0"
         id="path12031"
         d="m -102.08454,571.58233 c -9.73674,-9.32155 -9.93678,-9.67374 -6.85586,-12.07009 10.485116,-8.15534 26.467937,-9.65635 40.06577,-3.76272 4.581778,1.98585 8.330506,4.10823 8.330506,4.71639 0,0.60816 -2.501061,4.02768 -5.557914,7.59892 -5.761126,6.73058 -16.76626,13.11922 -22.599304,13.11922 -1.939453,0 -7.583377,-4.04921 -13.383198,-9.60172 z"
         style="fill:#000000;fill-opacity:1;stroke:#000000;stroke-width:0;stroke-linejoin:bevel;stroke-miterlimit:27.39999962;stroke-dasharray:none;stroke-dashoffset:0;stroke-opacity:0" />
    </g>
    <circle
       inkscape:export-ydpi="96"
       inkscape:export-xdpi="96"
       inkscape:export-filename="/Users/anilkarki/Desktop/BoardGame Graphic/A_1_2.png"
       cy="106.83195"
       cx="226.57123"
       id="circle929"
       style="display:inline;opacity:1;fill:#808080;fill-opacity:1;fill-rule:nonzero;stroke:#000000;stroke-width:0.39925161;stroke-linecap:round;stroke-linejoin:round;stroke-miterlimit:4;stroke-dasharray:none;stroke-dashoffset:0;stroke-opacity:1;paint-order:markers fill stroke"
       r="6.4149575" />
    <g
       style="stroke-width:2.40525484"
       transform="matrix(0.10395743,0,0,0.10392077,228.487,93.062826)"
       id="g955"
       inkscape:export-filename="/Users/anilkarki/Desktop/BoardGame Graphic/A_1_2.png"
       inkscape:export-xdpi="96"
       inkscape:export-ydpi="96">
      <path
         style="fill:none;stroke:#000000;stroke-width:0.63639027px;stroke-linecap:butt;stroke-linejoin:miter;stroke-opacity:1"
         d="m -36.105471,163.07389 c -3.533328,-9.98181 9.045055,-21.09813 -21.831214,-24.77003 3.706357,-5.4449 6.645789,-6.28824 9.236284,-5.03797 v -1.2595 c -0.03702,-0.11568 -8.097579,-25.77723 12.175101,-28.12868 28.54851,10.91561 31.4873273,11.75527 31.4873273,11.75527 v 15.11392 c 5.56665964,-0.71139 7.696328,1.15497 8.8164522,3.77848 -16.5443385,3.0646 -6.9453629,20.30699 -11.7552695,28.12868 -1.6793243,1.81927 -3.358649,3.63854 -5.037973,5.45781 h -3.358648 v -4.61815 7.13713 l -5.457804,0.41983 v -7.97679 5.45781 l -5.877635,0.41983 -0.419831,-5.87764 c 0,0 0.191343,0.37369 0,0 -0.09428,-0.18413 -3.947235,9.86809 -7.97679,0 z"
         id="path931"
         inkscape:connector-curvature="0"
         sodipodi:nodetypes="ccccccccccccccccccsc"
         inkscape:export-xdpi="200.8"
         inkscape:export-ydpi="200.8" />
      <path
         style="fill:none;stroke:#000000;stroke-width:0.63639027px;stroke-linecap:butt;stroke-linejoin:miter;stroke-opacity:1"
         d="m -57.936685,138.30386 c -2.849797,-32.52628 3.570392,-36.10669 4.19831,-36.5253 8.816915,-6.812134 18.679485,-17.109787 24.350202,-13.434596 21.929172,0.340529 22.3052486,7.865423 32.3269903,12.175096 8.7309807,2.38657 18.7506637,-1.670372 28.5485117,-4.618136 -7.375371,4.466256 -12.037782,11.193306 -25.6096942,10.495776 2.4837513,1.5693 9.6118982,4.46557 27.7088482,10.49578 -7.653909,-1.30797 -12.50666,-1.21536 -28.5485105,-6.7173 10.5251435,12.99289 25.9134005,14.63851 39.4641185,20.57172 -12.995813,-2.35062 -22.91621,-0.0881 -39.8839496,-8.39662 l 7.1371276,8.81645 c -8.6813374,3.6553 -10.2328904,4.30859 -7.9767897,3.35865"
         id="path933"
         inkscape:connector-curvature="0"
         sodipodi:nodetypes="cccccccccccc"
         inkscape:export-xdpi="200.8"
         inkscape:export-ydpi="200.8" />
      <path
         style="fill:none;stroke:#000000;stroke-width:0.63639027px;stroke-linecap:butt;stroke-linejoin:miter;stroke-opacity:1"
         d="m -39.88395,123.18994 c 8.396621,4.19831 7.55696,4.19831 7.55696,4.19831 l -0.419833,7.13713 c -2.800031,0.70551 -5.823567,2.52854 -7.556957,-2.09916 -2.247527,-4.67041 -0.515037,-6.68747 0.41983,-9.23628 z"
         id="path935"
         inkscape:connector-curvature="0"
         sodipodi:nodetypes="ccccc"
         inkscape:export-xdpi="200.8"
         inkscape:export-ydpi="200.8" />
      <path
         sodipodi:nodetypes="ccccc"
         inkscape:connector-curvature="0"
         id="path937"
         d="m -13.571391,124.08911 c -9.85111,1.41537 -8.896794,1.751 -8.896794,1.751 l -0.04633,8.27963 c 3.130625,1.92109 6.433306,5.20163 8.742821,0.63482 2.896992,-4.40985 1.075878,-7.39488 0.200307,-10.66545 z"
         style="fill:none;stroke:#000000;stroke-width:0.73145622px;stroke-linecap:butt;stroke-linejoin:miter;stroke-opacity:1"
         inkscape:export-xdpi="200.8"
         inkscape:export-ydpi="200.8" />
      <path
         style="fill:#000000;fill-opacity:1;stroke:#000000;stroke-width:0;stroke-linejoin:bevel;stroke-miterlimit:27.39999962;stroke-dasharray:none;stroke-dashoffset:0;stroke-opacity:0"
         d="m -218.095,514.32172 c -0.49222,-2.06174 -1.37603,-15.53035 -1.96403,-29.93022 -1.61094,-39.45096 2.32749,-73.11531 10.40654,-88.95156 4.60879,-9.03398 54.21605,-49.2803 71.35698,-57.89184 9.7576,-4.90219 13.66168,-5.14349 39.669073,-2.4518 39.092541,4.04595 52.686975,8.70659 78.403897,26.8795 22.6351276,15.99515 28.2991576,18.81543 42.082162,20.95394 14.393575,2.23324 35.653058,-0.71969 63.369699,-8.802 10.794194,-3.14764 19.900709,-5.44807 20.236699,-5.11207 0.336,0.336 -4.98411,4.63936 -11.822475,9.56302 -21.659268,15.59479 -38.492999,21.66435 -60.171959,21.69554 -7.199937,0.0103 -13.090795,0.6335 -13.090795,1.38477 0,2.17243 22.219014,11.73402 53.156562,22.87506 15.708954,5.65701 29.632797,10.67215 30.941877,11.14474 1.60769,0.5804 1.27816,0.89992 -1.0154,0.98454 -8.540863,0.31509 -50.450987,-10.11174 -75.806271,-18.85986 -5.161327,-1.78078 -9.760766,-2.86124 -10.220975,-2.40102 -1.285548,1.28553 15.205125,17.59729 26.745652,26.4555 14.927125,11.45767 42.310942,24.29231 78.858644,36.96061 17.59386,6.09844 31.82473,11.25219 31.62414,11.45276 -0.81405,0.81406 -55.143867,-4.5632 -68.433563,-6.77317 -17.568831,-2.92155 -37.051441,-8.67391 -54.432065,-16.07139 -7.246922,-3.08441 -13.603844,-5.18039 -14.126508,-4.65773 -0.522648,0.52265 4.850449,8.03791 11.94025,16.70056 l 12.890529,15.75027 -13.519665,5.65945 -13.51965,5.65944 -4.812747,-5.48142 c -5.0957469,-5.80373 -12.5558339,-8.70853 -22.402762,-8.72317 l -5.950361,-0.009 V 464.0146 435.70403 l -6.490892,-1.94472 c -3.569995,-1.0696 -30.738584,-11.1067 -60.374657,-22.30467 l -53.883769,-20.35995 -8.48365,1.97209 c -18.51933,4.30496 -33.84615,17.43047 -39.93703,34.2011 -3.93084,10.82315 -4.79512,42.46022 -1.59183,58.26908 3.30352,16.30356 3.36462,15.87652 -2.15533,15.06636 -5.79574,-0.85063 -17.14347,5.40745 -22.71554,12.52724 l -3.86585,4.93964 z"
         id="path939"
         inkscape:connector-curvature="0"
         transform="scale(0.26458333)"
         inkscape:export-xdpi="200.8"
         inkscape:export-ydpi="200.8" />
      <path
         style="fill:#000000;fill-opacity:1;stroke:#000000;stroke-width:0;stroke-linejoin:bevel;stroke-miterlimit:27.39999962;stroke-dasharray:none;stroke-dashoffset:0;stroke-opacity:0"
         d="m -146.17679,506.90284 c -2.455,-2.455 -5.71166,-8.42284 -7.23703,-13.26186 -2.64574,-8.39323 -2.64368,-9.21059 0.0445,-17.75715 l 2.81793,-8.95894 12.87166,6.81826 12.87166,6.81826 0.48144,10.1966 c 0.70867,15.00938 -0.0603,16.75236 -8.30632,18.82874 -9.17285,2.30975 -8.39634,2.46363 -13.54388,-2.68391 z"
         id="path941"
         inkscape:connector-curvature="0"
         transform="scale(0.26458333)"
         inkscape:export-xdpi="200.8"
         inkscape:export-ydpi="200.8" />
      <path
         style="fill:#000000;fill-opacity:1;stroke:#000000;stroke-width:0;stroke-linejoin:bevel;stroke-miterlimit:27.39999962;stroke-dasharray:none;stroke-dashoffset:0;stroke-opacity:0"
         d="m -76.015064,511.04743 -8.330506,-5.16291 v -14.60649 c 0,-16.82827 -1.457071,-15.41309 19.289525,-18.73498 l 12.677335,-2.02986 1.743911,4.16232 c 0.959153,2.28927 1.799598,9.27485 1.867655,15.5235 0.11101,10.19208 -0.372533,12.06983 -4.699011,18.24777 -6.329068,9.03752 -11.247535,9.60479 -22.548909,2.60065 z"
         id="path943"
         inkscape:connector-curvature="0"
         transform="scale(0.26458333)"
         inkscape:export-xdpi="200.8"
         inkscape:export-ydpi="200.8" />
      <path
         style="fill:#f4d7d7;fill-opacity:1;stroke:#000000;stroke-width:0;stroke-linejoin:bevel;stroke-miterlimit:27.39999962;stroke-dasharray:none;stroke-dashoffset:0;stroke-opacity:0"
         d="m -81.172044,630.3737 c 0,-16.17442 -2.767291,-19.62996 -3.494501,-4.3636 l -0.472406,9.91727 -8.904485,0.46933 -24.188704,-6.8204 14.2889,1.26673 c -0.54743,-3.31265 -1.00318,-7.98662 -1.01279,-10.3866 -0.0235,-5.87977 -2.21054,-5.49404 -6.08535,1.07327 -1.76431,2.99029 -5.00015,6.61125 -7.19076,8.0466 -5.51099,3.61094 -9.44337,1.19038 -14.90853,-9.17685 -4.26182,-8.08451 -4.35172,-8.8109 -3.93487,-31.79435 0.24017,-13.24181 -0.31723,-26.28319 -1.27544,-29.84175 -4.57619,-16.99465 -27.13402,-29.09847 -65.04736,-34.90234 -6.95671,-1.06495 -12.64856,-2.4232 -12.64856,-3.01833 0,-0.59513 3.97563,-4.84204 8.83474,-9.43759 8.68181,-8.21088 8.97335,-8.34221 16.84102,-7.58623 l 8.00627,0.7693 -0.90218,-5.73473 c -0.4962,-3.1541 -1.98038,-11.44708 -3.29817,-18.42884 -4.16829,-22.08386 -2.1972,-44.55873 5.17529,-59.01002 4.06241,-7.96298 15.94015,-18.89415 24.49803,-22.54573 15.15151,-6.46502 13.65586,-6.78399 72.813711,15.52852 29.961772,11.30065 56.439563,21.03908 58.839542,21.64096 l 4.363599,1.09432 v 29.1831 29.1831 l 9.917269,0.006 c 10.70416044,0.006 18.5472921,3.40328 21.772547,9.42974 1.45576,2.7201 1.275868,3.261 -1.0888054,3.27394 -5.7397821,0.0314 -19.039776,7.67695 -24.5470496,14.11094 -8.560015,10.00052 -10.81425,20.31863 -10.81425,49.49913 0,32.46087 -1.520929,38.16838 -13.662855,51.27168 -8.122958,8.76614 -10.123453,10.10949 -15.295571,10.27112 l -5.950361,0.18597 v -7.93382 c 0,-4.3636 -0.714044,-7.93381 -1.586763,-7.93381 -0.93339,0 -1.586763,5.55367 -1.586763,13.48748 v 13.48749 h -8.727197 -8.727197 z m 23.733755,-112.62395 c 4.215664,-2.25615 10.906298,-14.45782 12.132469,-22.1259 0.699588,-4.37495 0.118373,-10.10007 -1.71207,-16.86198 -3.23368,-11.94618 -2.724504,-11.79012 -25.080606,-7.68699 l -13.934517,2.55748 0.447031,17.58155 0.447031,17.58156 8.727196,5.24585 c 9.011766,5.41689 13.970279,6.38605 18.973466,3.70843 z m -71.337591,-6.57047 5.92092,-1.77395 1.08579,-14.38315 c 0.96907,-12.8371 0.77959,-14.56525 -1.76275,-16.07714 -1.5667,-0.93168 -8.39854,-4.77772 -15.18189,-8.54674 l -12.33335,-6.85277 -3.1099,6.85277 c -4.02107,8.86053 -3.98846,18.05936 0.10279,28.99421 4.90175,13.10111 11.1568,16.0177 25.27839,11.78677 z"
         id="path945"
         inkscape:connector-curvature="0"
         transform="scale(0.26458333)"
         sodipodi:nodetypes="ssccccccccscsscscsssssccccccccscccssscccssccsccccsscscsccss"
         inkscape:export-xdpi="200.8"
         inkscape:export-ydpi="200.8" />
      <path
         style="fill:none;stroke:#000000;stroke-width:0.63639027px;stroke-linecap:butt;stroke-linejoin:miter;stroke-opacity:1"
         d="m -57.936685,138.30386 c 19.709896,32.11863 2.821209,23.26582 1.259493,22.67088 5.977533,9.89552 10.61476,9.0686 15.533749,10.49577 l 0.839663,8.39662 36.9451317,-1.25949 c 0.3375178,-4.78277 1.4873003,-7.94101 2.93881726,-10.49578 9.94426384,3.10355 17.93590704,0.34923 26.86918704,0.41983 C 14.994205,167.83853 4.0888921,166.901 2.5189863,161.8144 0.00189944,155.65498 0.70070331,146.27966 3.7784793,134.52538"
         id="path947"
         inkscape:connector-curvature="0"
         sodipodi:nodetypes="ccccccccc"
         inkscape:export-xdpi="200.8"
         inkscape:export-ydpi="200.8" />
      <path
         style="fill:#000000;fill-opacity:1;stroke:#000000;stroke-width:0;stroke-linejoin:bevel;stroke-miterlimit:27.39999962;stroke-dasharray:none;stroke-dashoffset:0;stroke-opacity:0"
         d="m -151.57373,673.61299 c -0.45995,-2.39998 -1.29232,-9.43204 -1.8497,-15.62681 l -1.01343,-11.26321 -12.49131,-2.68425 c -14.76531,-3.17291 -26.47265,-10.38716 -36.29105,-22.36313 -3.56435,-4.3476 -6.48063,-8.38347 -6.48063,-8.96859 0,-0.58513 3.39171,-0.0365 7.53712,1.21914 13.31985,4.0346 19.43785,0.17028 19.43785,-12.27757 0,-13.00157 -9.20781,-35.36024 -27.83378,-67.5868 l -5.68338,-9.83334 6.04793,0.88292 c 37.68307,5.50124 60.0602,15.34157 67.48426,29.67615 3.07999,5.94693 3.36654,8.75764 3.05717,29.98635 -0.38166,26.18904 0.79734,32.63984 7.70948,42.18177 4.89444,6.75658 9.59098,8.3228 15.56999,5.19234 3.98153,-2.08462 9.81296,0.69811 9.81296,4.6827 0,3.24022 0.47729,3.33777 11.107339,2.27024 l 11.107341,-1.11547 v 5.14235 5.14236 l 8.330506,-1.00061 c 4.581778,-0.55034 9.937104,-1.00682 11.900723,-1.01441 2.906001,-0.0112 3.570217,-0.89941 3.570217,-4.77408 0,-4.47486 0.370763,-4.76029 6.183647,-4.76029 5.650765,0 7.018792,-0.94201 15.875104,-10.93145 13.979446,-15.76808 14.982042,-18.84492 14.793154,-45.39864 -0.31099,-43.71993 4.045421,-56.16675 22.9851829,-65.67159 8.9392993,-4.48615 13.7311971,-4.49734 12.3129161,-0.0288 -7.5643532,23.83318 -10.74440084,66.578 -6.4044294,86.08539 3.0689426,13.7943 7.3690224,20.04367 17.2657274,25.0926 7.157412,3.65144 31.912026,9.21247 41.152906,9.24484 3.272698,0.0114 5.950361,0.66445 5.950361,1.45108 0,0.78663 -8.323143,1.95028 -18.495865,2.5859 -18.127768,1.13266 -40.186409,-0.68743 -49.0158564,-4.04438 -3.4652207,-1.31747 -4.1883562,-0.85137 -6.880871,4.43501 -4.1085103,8.06648 -8.1190856,22.05205 -8.1190856,28.31265 0,4.89577 -0.355784,5.21113 -6.743743,5.97752 -6.891248,0.82675 -105.775154,4.20152 -122.054674,4.16555 -8.54894,-0.0189 -9.03953,-0.23757 -9.83408,-4.38348 z"
         id="path949"
         inkscape:connector-curvature="0"
         transform="scale(0.26458333)"
         inkscape:export-xdpi="200.8"
         inkscape:export-ydpi="200.8" />
      <path
         style="fill:none;stroke:#000000;stroke-width:0.63639027px;stroke-linecap:butt;stroke-linejoin:miter;stroke-opacity:1"
         d="m -29.808006,148.37981 c 4.203375,-3.46821 8.951351,-3.66882 14.274257,-0.41984 l -0.419831,0.83967 c -1.667124,2.81107 -4.076458,4.87994 -7.97679,5.4578 -3.638536,-2.51898 -5.597748,-4.47819 -5.877636,-5.87763 z"
         id="path951"
         inkscape:connector-curvature="0"
         sodipodi:nodetypes="ccccc"
         inkscape:export-xdpi="200.8"
         inkscape:export-ydpi="200.8" />
      <path
         style="fill:#000000;fill-opacity:1;stroke:#000000;stroke-width:0;stroke-linejoin:bevel;stroke-miterlimit:27.39999962;stroke-dasharray:none;stroke-dashoffset:0;stroke-opacity:0"
         d="m -102.08454,571.58233 c -9.73674,-9.32155 -9.93678,-9.67374 -6.85586,-12.07009 10.485116,-8.15534 26.467937,-9.65635 40.06577,-3.76272 4.581778,1.98585 8.330506,4.10823 8.330506,4.71639 0,0.60816 -2.501061,4.02768 -5.557914,7.59892 -5.761126,6.73058 -16.76626,13.11922 -22.599304,13.11922 -1.939453,0 -7.583377,-4.04921 -13.383198,-9.60172 z"
         id="path953"
         inkscape:connector-curvature="0"
         transform="scale(0.26458333)"
         inkscape:export-xdpi="200.8"
         inkscape:export-ydpi="200.8" />
    </g>
  </g>
</svg>
