<?xml version="1.0" encoding="UTF-8" standalone="no"?>
<!-- Created with Inkscape (http://www.inkscape.org/) -->

<svg
   xmlns:dc="http://purl.org/dc/elements/1.1/"
   xmlns:cc="http://creativecommons.org/ns#"
   xmlns:rdf="http://www.w3.org/1999/02/22-rdf-syntax-ns#"
   xmlns:svg="http://www.w3.org/2000/svg"
   xmlns="http://www.w3.org/2000/svg"
   xmlns:sodipodi="http://sodipodi.sourceforge.net/DTD/sodipodi-0.dtd"
   xmlns:inkscape="http://www.inkscape.org/namespaces/inkscape"
   width="210mm"
   height="297mm"
   viewBox="0 0 210 297"
   version="1.1"
   id="svg8"
   inkscape:version="0.92.2 5c3e80d, 2017-08-06"
   sodipodi:docname="anil.svg">
  <defs
     id="defs2" />
  <sodipodi:namedview
     id="base"
     pagecolor="#ffffff"
     bordercolor="#666666"
     borderopacity="1.0"
     inkscape:pageopacity="0.0"
     inkscape:pageshadow="2"
     inkscape:zoom="1.6777685"
     inkscape:cx="192.02519"
     inkscape:cy="720.75931"
     inkscape:document-units="mm"
     inkscape:current-layer="layer1"
     showgrid="false"
     showborder="false"
     inkscape:window-width="1440"
     inkscape:window-height="799"
     inkscape:window-x="74"
     inkscape:window-y="0"
     inkscape:window-maximized="0" />
  <metadata
     id="metadata5">
    <rdf:RDF>
      <cc:Work
         rdf:about="">
        <dc:format>image/svg+xml</dc:format>
        <dc:type
           rdf:resource="http://purl.org/dc/dcmitype/StillImage" />
        <dc:title></dc:title>
      </cc:Work>
    </rdf:RDF>
  </metadata>
  <g
     inkscape:label="Layer 1"
     inkscape:groupmode="layer"
     id="layer1">
    <path
       style="fill:#aa8800;stroke:#000000;stroke-width:0.27962449px;stroke-linecap:butt;stroke-linejoin:miter;stroke-opacity:1"
       d="m -0.8821829,119.76581 c 5.4660479,28.44376 34.5941119,14.20703 33.1552899,-0.0185"
       id="path1003"
       inkscape:connector-curvature="0"
       sodipodi:nodetypes="cc" />
    <rect
       style="fill:#800000;stroke-width:0.42027172"
       id="rect43"
       width="5.0813375"
       height="13.916631"
       x="43.837196"
       y="131.2213" />
    <path
       style="fill:none;stroke:#000000;stroke-width:0.26458332px;stroke-linecap:butt;stroke-linejoin:miter;stroke-opacity:1"
       d="M -0.88218112,119.76581 C 32.273107,119.74731 32.273107,119.74731 32.273107,119.74731"
       id="path1005"
       inkscape:connector-curvature="0" />
    <rect
       style="fill:#800000;stroke-width:0.35877058"
       id="rect45"
       width="4.4229999"
       height="12.366727"
       x="47.940231"
       y="115.76617" />
    <path
       sodipodi:type="star"
       style="fill:#ffcc00;stroke-width:0.26458332"
       id="path10"
       sodipodi:sides="3"
       sodipodi:cx="29.203796"
       sodipodi:cy="125.84906"
       sodipodi:r1="7.6116557"
       sodipodi:r2="19.029139"
       sodipodi:arg1="0.5404195"
       sodipodi:arg2="1.5876171"
       inkscape:flatsided="false"
       inkscape:rounded="0.13"
       inkscape:randomized="0.005"
       d="m 35.6745,129.71249 c -1.097464,1.85849 -4.567574,15.13253 -6.723517,15.10995 -2.155943,-0.0226 -5.404287,-13.34502 -6.453184,-15.23435 -1.048898,-1.88932 -10.820503,-11.64121 -9.702808,-13.48635 1.117694,-1.84515 14.293827,2.07286 16.444763,2.12151 2.150936,0.0486 15.522246,-3.56573 16.559345,-1.67122 1.0371,1.89452 -9.027136,11.30197 -10.124599,13.16046 z"
       transform="matrix(1.0447476,-0.01053379,0.01164738,1.0471291,54.445869,-28.703659)" />
    <ellipse
       style="fill:#d4aa00;stroke-width:0.26458332"
       id="path52"
       cx="91.39473"
       cy="139.29367"
       rx="3.6437671"
       ry="4.0854359" />
    <path
       style="fill:#0000ff;stroke-width:0.87138593"
       id="path32"
       sodipodi:type="arc"
       sodipodi:cx="-17.005594"
       sodipodi:cy="-119.67316"
       sodipodi:rx="14.009205"
       sodipodi:ry="13.932931"
       sodipodi:start="3.138102"
       sodipodi:end="0"
       d="m -31.014714,-119.62452 a 14.009205,13.932931 0 0 1 6.976303,-12.09866 14.009205,13.932931 0 0 1 14.023298,-0.0243 14.009205,13.932931 0 0 1 7.0187236,12.07437 H -17.005594 Z"
       transform="matrix(-0.99995695,-0.00927939,0.01216852,-0.99992596,0,0)" />
    <path
       sodipodi:type="spiral"
       style="fill:none;fill-rule:evenodd;stroke:#000000;stroke-width:0.26458332"
       id="path54"
       sodipodi:cx="92.579277"
       sodipodi:cy="127.64684"
       sodipodi:expansion="1"
       sodipodi:revolution="3"
       sodipodi:radius="2.5753489"
       sodipodi:argument="-18.309137"
       sodipodi:t0="0.12266595"
       d="m 92.276468,127.73687 c -0.163088,-0.19474 -0.04468,-0.4806 0.151627,-0.59855 0.313124,-0.18814 0.709324,-0.0109 0.865419,0.29618 0.217367,0.42758 -0.02245,0.94026 -0.440738,1.13229 -0.540852,0.2483 -1.17216,-0.0555 -1.399163,-0.58529 -0.280056,-0.65364 0.08835,-1.40457 0.729849,-1.66603 0.766174,-0.31228 1.637287,0.12111 1.932907,0.8744 0.344785,0.87857 -0.153817,1.8702 -1.018961,2.19978 -0.990883,0.37748 -2.103249,-0.18647 -2.46665,-1.16352 -0.410301,-1.10314 0.219098,-2.33639 1.308071,-2.73352 1.215353,-0.44322 2.569612,0.2517 3.000395,1.45263 0.237326,0.66161 0.177027,1.40664 -0.151602,2.02661" />
    <text
       xml:space="preserve"
       style="font-style:normal;font-variant:normal;font-weight:bold;font-stretch:normal;font-size:7.86415243px;line-height:1.25;font-family:'.Al Bayan PUA';-inkscape-font-specification:'.Al Bayan PUA Bold';font-variant-ligatures:normal;font-variant-caps:normal;font-variant-numeric:normal;text-align:start;letter-spacing:0px;word-spacing:0px;writing-mode:lr-tb;text-anchor:start;fill:#2b0000;fill-opacity:1;stroke:none;stroke-width:0.73726428"
       x="4.9387603"
       y="134.78824"
       id="text866"
       transform="scale(1.1381047,0.87865379)"><tspan
         sodipodi:role="line"
         id="tspan864"
         x="4.9387603"
         y="134.78824"
         style="fill:#2b0000;stroke-width:0.73726428">FCB</tspan></text>
    <path
       style="fill:none;stroke:#000000;stroke-width:0.26458332px;stroke-linecap:butt;stroke-linejoin:miter;stroke-opacity:1"
       d="M 4.5271044,112.04706 C 5.470171,109.41876 6.8717957,107.59294 4.4166871,99.017813"
       id="path884"
       inkscape:connector-curvature="0"
       sodipodi:nodetypes="cc" />
    <path
       style="fill:none;stroke:#000000;stroke-width:0.26458332px;stroke-linecap:butt;stroke-linejoin:miter;stroke-opacity:1"
       d="m 26.168871,99.017815 c -3.846082,9.692265 0.08942,12.463155 0.110418,12.477155"
       id="path886"
       inkscape:connector-curvature="0"
       sodipodi:nodetypes="cc" />
    <path
       style="fill:none;stroke:#000000;stroke-width:0.26458332px;stroke-linecap:butt;stroke-linejoin:miter;stroke-opacity:1"
       d="M 4.5271044,112.04706 C 26.279289,111.49497 26.279289,111.49497 26.279289,111.49497"
       id="path888"
       inkscape:connector-curvature="0" />
    <path
       style="fill:none;stroke:#000000;stroke-width:0.26458332px;stroke-linecap:butt;stroke-linejoin:miter;stroke-opacity:1"
       d="m 4.4166871,99.017813 c 5.1442476,3.182417 6.6240929,0.112298 6.6250309,0.110421 5.297832,2.463796 6.579165,0.911086 8.502123,0 1.816557,1.269146 3.927413,1.557296 6.62503,-0.110421"
       id="path890"
       inkscape:connector-curvature="0"
       sodipodi:nodetypes="cccc" />
    <rect
       style="fill:#000000;stroke-width:0.27889532"
       id="rect892"
       width="1.1041718"
       height="11.37297"
       x="-16.710173"
       y="100.45324"
       transform="scale(-1,1)" />
    <rect
       transform="scale(-1,1)"
       y="99.453224"
       x="-19.160172"
       height="12.373"
       width="1.1041718"
       id="rect906"
       style="fill:#800000;stroke-width:0.29089874" />
    <rect
       transform="scale(-1,1)"
       y="99.653236"
       x="-21.394173"
       height="12.173"
       width="1.1041718"
       id="rect908"
       style="fill:#800000;stroke-width:0.28853807" />
    <rect
       transform="scale(-1,1)"
       y="99.653236"
       x="-23.702171"
       height="12.173"
       width="1.1041718"
       id="rect912"
       style="fill:#800000;stroke-width:0.28853807" />
    <rect
       transform="scale(-1,1)"
       y="100.45324"
       x="-15.606002"
       height="11.37297"
       width="1.1041718"
       id="rect914"
       style="fill:#d4aa00;stroke-width:0.27889532" />
    <rect
       style="fill:#d4aa00;stroke-width:0.30112565"
       id="rect916"
       width="1.2329998"
       height="11.873"
       x="-18.056"
       y="99.953224"
       transform="scale(-1,1)" />
    <rect
       style="fill:#800000;stroke-width:0.28011915"
       id="rect918"
       width="1.1041718"
       height="11.473"
       x="-16.710175"
       y="100.35321"
       transform="scale(-1,1)" />
    <rect
       transform="scale(-1,1)"
       y="99.253227"
       x="-20.393171"
       height="12.073"
       width="1.2329998"
       id="rect920"
       style="fill:#d4aa00;stroke-width:0.30365127" />
    <rect
       style="fill:#d4aa00;stroke-width:0.30112565"
       id="rect922"
       width="1.2329998"
       height="11.873"
       x="-22.598"
       y="99.653236"
       transform="scale(-1,1)" />
    <path
       sodipodi:nodetypes="cc"
       inkscape:connector-curvature="0"
       id="path939"
       d="M 4.5271044,112.04706 C 5.470171,109.41876 6.8717957,107.59294 4.4166871,99.017813"
       style="fill:none;stroke:#000000;stroke-width:0.26458332px;stroke-linecap:butt;stroke-linejoin:miter;stroke-opacity:1" />
    <path
       sodipodi:nodetypes="cc"
       inkscape:connector-curvature="0"
       id="path941"
       d="m 26.168871,99.017815 c -3.846082,9.692265 0.08942,12.463155 0.110418,12.477155"
       style="fill:none;stroke:#000000;stroke-width:0.26458332px;stroke-linecap:butt;stroke-linejoin:miter;stroke-opacity:1" />
    <path
       inkscape:connector-curvature="0"
       id="path943"
       d="M 4.5271044,112.04706 C 26.279289,111.49497 26.279289,111.49497 26.279289,111.49497"
       style="fill:none;stroke:#000000;stroke-width:0.26458332px;stroke-linecap:butt;stroke-linejoin:miter;stroke-opacity:1" />
    <path
       sodipodi:nodetypes="cccc"
       inkscape:connector-curvature="0"
       id="path945"
       d="m 4.4166871,99.017813 c 5.1442476,3.182417 6.6240929,0.112298 6.6250309,0.110421 5.297832,2.463796 6.579165,0.911086 8.502123,0 1.816557,1.269146 3.927413,1.557296 6.62503,-0.110421"
       style="fill:none;stroke:#000000;stroke-width:0.26458332px;stroke-linecap:butt;stroke-linejoin:miter;stroke-opacity:1" />
    <rect
       transform="scale(-1,1)"
       y="100.45324"
       x="-16.710173"
       height="11.37297"
       width="1.1041718"
       id="rect947"
       style="fill:#000000;stroke-width:0.27889532" />
    <rect
       style="fill:#800000;stroke-width:0.29089874"
       id="rect949"
       width="1.1041718"
       height="12.373"
       x="-19.160172"
       y="99.453224"
       transform="scale(-1,1)" />
    <rect
       style="fill:#800000;stroke-width:0.28853807"
       id="rect951"
       width="1.1041718"
       height="12.173"
       x="-21.394173"
       y="99.653236"
       transform="scale(-1,1)" />
    <rect
       style="fill:#800000;stroke-width:0.28853807"
       id="rect953"
       width="1.1041718"
       height="12.173"
       x="-23.702171"
       y="99.653236"
       transform="scale(-1,1)" />
    <rect
       style="fill:#d4aa00;stroke-width:0.27889532"
       id="rect955"
       width="1.1041718"
       height="11.37297"
       x="-15.606002"
       y="100.45324"
       transform="scale(-1,1)" />
    <rect
       transform="scale(-1,1)"
       y="99.953224"
       x="-18.056"
       height="11.873"
       width="1.2329998"
       id="rect957"
       style="fill:#d4aa00;stroke-width:0.30112565" />
    <rect
       transform="scale(-1,1)"
       y="100.35321"
       x="-16.710175"
       height="11.473"
       width="1.1041718"
       id="rect959"
       style="fill:#800000;stroke-width:0.28011915" />
    <rect
       style="fill:#d4aa00;stroke-width:0.30365127"
       id="rect961"
       width="1.2329998"
       height="12.073"
       x="-20.393171"
       y="99.253227"
       transform="scale(-1,1)" />
    <rect
       transform="scale(-1,1)"
       y="99.653236"
       x="-22.598"
       height="11.873"
       width="1.2329998"
       id="rect963"
       style="fill:#d4aa00;stroke-width:0.30112565" />
    <path
       style="fill:none;stroke:#000000;stroke-width:0.34427899px;stroke-linecap:butt;stroke-linejoin:miter;stroke-opacity:1"
       d="m 1.7921467,94.857741 c 5.889476,4.706485 8.7982903,1.71192 8.7993643,1.709144 6.065309,3.643725 7.532264,1.347407 9.733794,0 2.079715,1.876954 5.710952,0.978095 8.799363,-1.488309"
       id="path965"
       inkscape:connector-curvature="0"
       sodipodi:nodetypes="cccc" />
    <path
       style="fill:none;stroke:#000000;stroke-width:0.26458332px;stroke-linecap:butt;stroke-linejoin:miter;stroke-opacity:1"
       d="M -3.3335041,117.56257 C 4.5573102,111.82363 5.1990724,106.04674 1.26298,94.857741"
       id="path973"
       inkscape:connector-curvature="0"
       sodipodi:nodetypes="cc" />
    <path
       sodipodi:nodetypes="cc"
       inkscape:connector-curvature="0"
       id="path975"
       d="m 33.556947,117.41543 c -5.90308,-3.78854 -8.66902,-13.50914 -4.432279,-22.336854"
       style="fill:none;stroke:#000000;stroke-width:0.26825225px;stroke-linecap:butt;stroke-linejoin:miter;stroke-opacity:1" />
    <path
       style="fill:#ffffff;stroke-width:0.11041718"
       d="m 4.8410733,111.8017 c 0,-0.0269 0.1305612,-0.41197 0.2901359,-0.85573 0.3602205,-1.00174 0.8641729,-1.45338 2.8234862,-2.53037 l 0.7509793,-0.4128 v 1.85216 1.85215 l -1.0107175,0.0717 c -1.154901,0.082 -2.8538839,0.0956 -2.8538839,0.0229 z"
       id="path985"
       inkscape:connector-curvature="0" />
    <path
       style="fill:#ffcc00;stroke-width:0.59018636"
       d=""
       id="path989"
       inkscape:connector-curvature="0"
       transform="scale(0.26458333)" />
    <path
       style="fill:#ffffff;stroke-width:0.15615347"
       d="m 26.555882,110.8804 c -1.474482,-1.42996 -1.683733,-1.87201 -1.832756,-3.87176 -0.115255,-1.5466 0.253454,-3.74667 1.023708,-6.10843 0.333044,-1.021182 0.541518,-1.896251 0.463277,-1.944607 -0.07824,-0.04836 -0.510247,0.08684 -0.960013,0.300448 -1.066471,0.506484 -1.520447,0.63305 -1.520447,0.423889 0,-0.10755 -0.58163,-0.166677 -1.639612,-0.166677 -0.901786,0 -1.639611,-0.05486 -1.639611,-0.12192 0,-0.06706 -0.219647,-0.204824 -0.488106,-0.306157 -0.394086,-0.148752 -0.573062,-0.140306 -0.929166,0.04384 -0.242583,0.125445 -0.57757,0.228082 -0.744415,0.228082 -0.166846,0 -0.343802,0.105404 -0.393238,0.23423 -0.05642,0.147018 -0.295203,0.23423 -0.64132,0.23423 -0.303291,0 -0.551438,0.06469 -0.551438,0.143746 0,0.540596 -2.427952,0.243136 -4.371324,-0.535554 -0.843751,-0.338079 -1.38066,-0.477115 -1.475651,-0.382124 -0.08212,0.08212 -0.627148,0.14932 -1.2111623,0.14932 H 8.5827641 v 0.546536 c 0,0.342148 -0.075328,0.546538 -0.2014225,0.546538 -0.5193202,0 -2.127918,-0.526469 -2.9541464,-0.966844 -1.1243347,-0.599263 -1.3115057,-0.488 -0.9853748,0.58575 1.0087364,3.321174 1.3682335,7.420694 0.8242237,9.399054 -0.2192727,0.79742 -0.4230722,1.13323 -1.1135365,1.83481 -0.5621846,0.57124 -0.9715894,0.85875 -1.2228158,0.85875 H 2.5520186 l 0.4278713,-1.28826 C 4.0346677,107.54148 3.9977022,103.03935 2.8769998,98.185957 2.6588505,97.24123 2.438941,96.273535 2.3883118,96.035527 l -0.092053,-0.432742 1.1134605,0.686496 c 2.3044428,1.420783 4.7208292,1.803305 6.4253004,1.017145 l 0.8618713,-0.397523 0.927554,0.513607 c 0.510154,0.282485 1.507346,0.702212 2.215983,0.932727 2.191071,0.712746 3.640926,0.462632 5.803694,-1.001193 l 0.677151,-0.458314 0.72823,0.410884 c 0.6501,0.3668 0.887386,0.409761 2.211688,0.400426 1.631268,-0.01151 2.88984,-0.389845 4.411577,-1.326179 0.745233,-0.458547 0.763439,-0.461711 0.656135,-0.114035 -0.0607,0.196678 -0.198708,0.53327 -0.306679,0.747982 -0.107974,0.214709 -0.41039,1.061074 -0.672039,1.880806 -1.49084,4.670766 -1.248232,9.147296 0.659741,12.173336 0.294765,0.46749 0.502177,0.90461 0.460915,0.97137 -0.197202,0.31908 -0.710488,0.008 -1.914959,-1.15992 z"
       id="path991"
       inkscape:connector-curvature="0" />
    <path
       style="fill:#aa8800;stroke-width:0.15615347"
       d="m 26.539199,110.83846 c -1.614402,-1.57563 -1.781153,-2.01954 -1.76129,-4.68866 0.01318,-1.77118 0.488096,-4.1536 1.176232,-5.90059 0.342876,-0.870462 0.385646,-1.434136 0.09925,-1.308014 -1.522784,0.670597 -2.21994,0.900115 -2.270782,0.747588 -0.03832,-0.114946 -0.619853,-0.17552 -1.685105,-0.17552 -0.89463,0 -1.6266,-0.05486 -1.6266,-0.12192 0,-0.06706 -0.219647,-0.204824 -0.488106,-0.306157 -0.394086,-0.148751 -0.573061,-0.140306 -0.929166,0.04384 -0.242583,0.125444 -0.577569,0.228081 -0.744415,0.228081 -0.166845,0 -0.343801,0.105405 -0.393238,0.23423 -0.04944,0.128826 -0.256964,0.234231 -0.461175,0.234231 -0.204212,0 -0.604285,0.116231 -0.889053,0.258291 -0.448112,0.22355 -0.671725,0.23436 -1.662347,0.0803 -0.629523,-0.0979 -1.760007,-0.417306 -2.512186,-0.709859 -0.814668,-0.316857 -1.427576,-0.475609 -1.515945,-0.392655 -0.08159,0.07659 -0.626175,0.139261 -1.2101887,0.139261 H 8.6032421 v 0.546537 c 0,0.342146 -0.075328,0.546536 -0.2014225,0.546536 -0.4952743,0 -2.0698931,-0.506957 -2.9419854,-0.947187 C 4.9214143,99.07505 4.445718,98.923722 4.3694635,98.999974 c -0.076254,0.07626 9.261e-4,0.609447 0.1768893,1.222156 0.9871943,3.43731 1.2914755,7.31273 0.7228835,9.20689 -0.3459599,1.1525 -1.6181713,2.57653 -2.3018424,2.57653 H 2.5520186 l 0.3553286,-0.97892 C 4.1025789,107.73381 4.0088986,102.44198 2.6616024,97.144945 2.4941277,96.486503 2.3571031,95.876011 2.3571031,95.788296 c 0,-0.08771 0.4391816,0.103952 0.9759592,0.425924 2.6450697,1.586566 5.1201087,1.941237 6.7667817,0.969677 l 0.502823,-0.296672 1.381628,0.684186 c 3.170526,1.570058 5.23804,1.530688 7.518289,-0.143169 l 0.774593,-0.568603 0.697365,0.389766 c 1.65237,0.923525 4.188007,0.588764 6.718463,-0.886992 0.40795,-0.237916 0.741727,-0.401092 0.741727,-0.362617 0,0.03848 -0.202843,0.581242 -0.450763,1.20614 -2.134607,5.380434 -2.085119,10.663294 0.131226,14.008474 0.25228,0.38077 0.423235,0.74969 0.379899,0.81981 -0.203406,0.32912 -0.712211,0.0181 -1.955895,-1.19576 z"
       id="path993"
       inkscape:connector-curvature="0" />
    <path
       style="fill:#aa8800;stroke-width:0.15615347"
       d="m 4.9140067,111.58188 c 0.7285328,-1.74107 0.9128186,-2.54762 0.9808713,-4.29292 0.077841,-1.99634 -0.096616,-3.54171 -0.6810441,-6.03281 -0.2083142,-0.88794 -0.3787532,-1.638922 -0.3787532,-1.668862 0,-0.02994 0.4743162,0.162793 1.054036,0.428302 1.4599123,0.66863 3.1362819,0.7823 4.1684353,0.28264 0.394159,-0.19081 0.784315,-0.473354 0.867011,-0.627873 0.142706,-0.26665 0.196201,-0.262215 1.051389,0.08714 0.495568,0.202449 1.234811,0.454403 1.642762,0.559903 l 0.741729,0.19182 v 5.50152 5.50149 l -0.97596,0.0846 c -0.536777,0.0465 -2.688495,0.12498 -4.7815941,0.17433 -3.6128177,0.0852 -3.7997201,0.0756 -3.6888822,-0.18929 z"
       id="path995"
       inkscape:connector-curvature="0" />
    <path
       style="fill:#f2f2f2;stroke-width:0.59018636"
       d=""
       id="path997"
       inkscape:connector-curvature="0"
       transform="scale(0.26458333)" />
    <path
       style="fill:#f2f2f2;stroke-width:0.15615347"
       d="m 5.0536382,111.44542 c 0.7931644,-2.05412 0.7963979,-2.07455 0.7886012,-4.98332 -0.00664,-2.47699 -0.057614,-3.03012 -0.4292698,-4.65806 -0.2319544,-1.01602 -0.4217355,-1.903781 -0.4217355,-1.972811 0,-0.06903 0.4391816,0.05653 0.9759592,0.279021 1.279297,0.53027 3.2519266,0.65665 4.0384677,0.25873 0.290962,-0.1472 0.66956,-0.393408 0.841328,-0.547131 0.301653,-0.269962 0.365581,-0.261554 1.873842,0.246481 l 1.561535,0.52598 0.04112,5.34439 c 0.02262,2.93941 -0.01895,5.40445 -0.09237,5.47787 -0.07342,0.0734 -2.194344,0.17716 -4.7131573,0.23053 -4.4666629,0.0946 -4.5768153,0.0897 -4.4643205,-0.20168 z"
       id="path999"
       inkscape:connector-curvature="0" />
    <rect
       style="fill:#800000;stroke-width:0.27696159"
       id="rect977"
       width="2.7604296"
       height="12.583"
       x="8.7056751"
       y="99.1241" />
    <rect
       style="fill:#800000;stroke-width:0.40753546"
       id="rect979"
       width="8.6230001"
       height="2.6500123"
       x="5.5306754"
       y="105.35277" />
    <rect
       style="fill:#800000;stroke-width:0.4510749"
       id="rect41"
       width="4.064178"
       height="12.808393"
       x="3.3347085"
       y="119.87191"
       inkscape:transform-center-x="-2.1107487"
       inkscape:transform-center-y="0.11041718" />
  </g>
</svg>
