<?xml version="1.0" encoding="UTF-8" standalone="no"?>
<!-- Created with Inkscape (http://www.inkscape.org/) -->

<svg
   xmlns:dc="http://purl.org/dc/elements/1.1/"
   xmlns:cc="http://creativecommons.org/ns#"
   xmlns:rdf="http://www.w3.org/1999/02/22-rdf-syntax-ns#"
   xmlns:svg="http://www.w3.org/2000/svg"
   xmlns="http://www.w3.org/2000/svg"
   xmlns:sodipodi="http://sodipodi.sourceforge.net/DTD/sodipodi-0.dtd"
   xmlns:inkscape="http://www.inkscape.org/namespaces/inkscape"
   width="210mm"
   height="297mm"
   viewBox="0 0 210 297"
   version="1.1"
   id="svg8"
   inkscape:export-filename="/Users/anilkarki/Desktop/BoardGame Graphic/A_1_2.png"
   inkscape:export-xdpi="91.313019"
   inkscape:export-ydpi="91.313019"
   inkscape:version="0.92.2 5c3e80d, 2017-08-06"
   sodipodi:docname="A_1_2.svg">
  <defs
     id="defs2" />
  <sodipodi:namedview
     id="base"
     pagecolor="#ffffff"
     bordercolor="#666666"
     borderopacity="1.0"
     inkscape:pageopacity="0.0"
     inkscape:pageshadow="2"
     inkscape:zoom="3.1062046"
     inkscape:cx="-222.24385"
     inkscape:cy="212.63265"
     inkscape:document-units="mm"
     inkscape:current-layer="layer1"
     showgrid="false"
     showborder="false"
     inkscape:window-width="1440"
     inkscape:window-height="800"
     inkscape:window-x="0"
     inkscape:window-y="1"
     inkscape:window-maximized="1" />
  <metadata
     id="metadata5">
    <rdf:RDF>
      <cc:Work
         rdf:about="">
        <dc:format>image/svg+xml</dc:format>
        <dc:type
           rdf:resource="http://purl.org/dc/dcmitype/StillImage" />
        <dc:title />
      </cc:Work>
    </rdf:RDF>
  </metadata>
  <g
     inkscape:label="Layer 1"
     inkscape:groupmode="layer"
     id="layer1"
     style="opacity:0.59">
    <ellipse
       style="fill:#ffffff;fill-opacity:1;stroke:#000000;stroke-width:0;stroke-linejoin:bevel;stroke-miterlimit:27.39999962;stroke-dasharray:none;stroke-dashoffset:0;stroke-opacity:0"
       id="path898"
       cx="-70.852051"
       cy="233.76437"
       rx="0.4247734"
       ry="0.23018551"
       inkscape:export-filename="/Users/anilkarki/Desktop/BoardGame/Documents/Inkscape/FinalPng/A_1_2.png"
       inkscape:export-xdpi="95.996452"
       inkscape:export-ydpi="95.996452" />
    <path
       style="fill:#01da06;fill-opacity:1;stroke:#0e0000;stroke-width:0.30000001;stroke-linejoin:round;stroke-miterlimit:27.39999962;stroke-dasharray:none;stroke-dashoffset:0;stroke-opacity:0"
       d="m -77.053738,241.72096 c -0.01427,-0.0451 -0.04175,-0.33813 -0.06137,-0.6512 -0.06655,-1.06381 -0.437295,-2.48185 -0.791049,-3.02601 l -0.204007,-0.31384 -1.152005,0.48752 -1.152009,0.48751 -0.993557,-0.0917 -0.993565,-0.0917 -0.427457,-0.45027 c -0.598964,-0.63097 -0.730013,-0.91336 -0.685473,-1.477 0.01937,-0.24561 0.07172,-0.53684 0.116251,-0.64711 l 0.08098,-0.20053 0.366339,0.38469 c 0.201483,0.21149 0.395822,0.38468 0.431867,0.38468 0.03607,0 0.08737,-0.18831 0.114059,-0.41856 0.05368,-0.4632 0.04511,-0.46587 0.404669,0.12555 0.181245,0.29812 0.202477,0.31274 0.287997,0.19853 0.05077,-0.0678 0.207447,-0.38907 0.348138,-0.71382 0.140694,-0.32476 0.277066,-0.57765 0.303028,-0.56195 0.02597,0.0149 0.176173,0.24063 0.333827,0.50002 0.157643,0.25934 0.311109,0.45675 0.34103,0.43867 0.02995,-0.0174 0.142707,-0.32012 0.250624,-0.67123 0.107916,-0.35108 0.216036,-0.63835 0.24025,-0.63835 0.02421,0 0.157439,0.1669 0.296031,0.37096 l 0.252026,0.37096 0.4091,-0.21322 c 0.571279,-0.29758 0.693354,-0.51313 0.735381,-1.29844 0.02737,-0.51156 0.0069,-0.70713 -0.115537,-1.10091 -0.182189,-0.58621 -0.325457,-0.7412 -0.685236,-0.7412 -0.217769,0 -0.302818,0.0406 -0.453817,0.21572 -0.102207,0.11882 -0.217821,0.28445 -0.256914,0.36832 -0.06736,0.14448 -0.08694,0.12954 -0.374802,-0.28997 -0.167049,-0.24338 -0.3272,-0.41663 -0.355895,-0.38506 -0.02872,0.0316 -0.124101,0.30602 -0.211984,0.60989 -0.08788,0.30386 -0.182265,0.55249 -0.20969,0.55249 -0.02745,0 -0.157643,-0.14324 -0.28934,-0.31811 -0.131697,-0.17487 -0.318068,-0.39001 -0.414178,-0.4779 l -0.174746,-0.15992 -0.07002,0.15992 c -0.03851,0.0879 -0.128052,0.30906 -0.19901,0.49148 l -0.129021,0.33168 -0.214201,-0.36516 c -0.117806,-0.20078 -0.225875,-0.3953 -0.240123,-0.43214 -0.05314,-0.13726 -0.43671,0.31813 -0.663028,0.78713 -0.288543,0.59795 -0.26542,0.56805 -0.347881,0.44983 -0.158001,-0.22643 0.131951,-1.92682 0.527521,-3.09346 0.407987,-1.20331 1.251753,-1.43595 6.374457,-1.75749 l 0.624622,-0.0391 0.279987,0.42029 c 0.324898,0.48766 0.680446,1.22236 0.9209,1.90288 0.139879,0.3959 0.239461,0.54556 0.579326,0.87059 0.305525,0.29217 0.486263,0.5465 0.707288,0.99518 0.163302,0.33148 0.411453,0.73831 0.551467,0.90406 0.330139,0.39082 0.940901,1.31463 1.286503,1.94596 0.249987,0.45665 1.091551,2.71762 1.02988,2.76694 -0.09675,0.0775 -1.307714,0.72939 -1.87662,1.01048 -0.376872,0.18608 -0.870221,0.4487 -1.096345,0.58339 -0.384385,0.22893 -1.309823,0.67661 -2.726563,1.31884 -0.410363,0.18608 -0.610597,0.24687 -0.628102,0.19107 z m -0.46547,-10.82846 c 0.954828,-0.42357 0.05666,-1.24373 -1.104167,-1.00821 -0.642589,0.13028 -0.918118,0.54125 -0.574498,0.85676 0.229137,0.21049 0.447473,0.27476 0.94213,0.27785 0.298707,0.002 0.541279,-0.0399 0.736535,-0.12629 z"
       id="path4534"
       inkscape:connector-curvature="0"
       inkscape:export-filename="/Users/anilkarki/Desktop/BoardGame/Documents/Inkscape/FinalPng/A_1_2.png"
       inkscape:export-xdpi="95.996452"
       inkscape:export-ydpi="95.996452" />
  </g>
</svg>
